<svg width="60" height="60" viewBox="0 0 60 60" xmlns="http://www.w3.org/2000/svg">
  <!-- Outer shell -->
  <path d="M10 25 L15 15 L30 8 L45 15 L50 25 L48 40 L30 52 L12 40 Z" fill="#9933ff" stroke="#6600cc" stroke-width="3"/>
  
  <!-- Inner armor plates -->
  <path d="M18 22 L30 16 L42 22 L40 35 L30 42 L20 35 Z" fill="#aa44ff" stroke="#7711dd" stroke-width="2"/>
  
  <!-- Spikes/horns -->
  <path d="M8 20 L2 12 L10 18" fill="#7700cc" stroke="#5500aa" stroke-width="1.5"/>
  <path d="M52 20 L58 12 L50 18" fill="#7700cc" stroke="#5500aa" stroke-width="1.5"/>
  <path d="M30 8 L28 2 L32 2 Z" fill="#7700cc" stroke="#5500aa" stroke-width="1.5"/>
  
  <!-- Eyes (menacing green glow) -->
  <ellipse cx="22" cy="28" rx="5" ry="6" fill="#00ff00" opacity="0.9"/>
  <ellipse cx="38" cy="28" rx="5" ry="6" fill="#00ff00" opacity="0.9"/>
  <ellipse cx="22" cy="28" rx="3" ry="4" fill="#66ff66"/>
  <ellipse cx="38" cy="28" rx="3" ry="4" fill="#66ff66"/>
  <circle cx="22" cy="27" r="1.5" fill="#ffffff"/>
  <circle cx="38" cy="27" r="1.5" fill="#ffffff"/>
  
  <!-- Mouth/vent -->
  <rect x="22" y="38" width="16" height="4" rx="1" fill="#330066"/>
  <line x1="24" y1="38" x2="24" y2="42" stroke="#220044" stroke-width="1"/>
  <line x1="28" y1="38" x2="28" y2="42" stroke="#220044" stroke-width="1"/>
  <line x1="32" y1="38" x2="32" y2="42" stroke="#220044" stroke-width="1"/>
  <line x1="36" y1="38" x2="36" y2="42" stroke="#220044" stroke-width="1"/>
  
  <!-- Energy core (center) -->
  <circle cx="30" cy="30" r="4" fill="#ff00ff" opacity="0.6"/>
  <circle cx="30" cy="30" r="2.5" fill="#ff66ff" opacity="0.8"/>
  
  <!-- Armor details -->
  <path d="M20 20 L30 16 L30 24" fill="none" stroke="#8822ee" stroke-width="1.5" opacity="0.7"/>
  <path d="M40 20 L30 16 L30 24" fill="none" stroke="#8822ee" stroke-width="1.5" opacity="0.7"/>
</svg>
